<?xml version="1.0" encoding="iso-8859-1"?>
<!-- Uploaded to: SVG Repo, www.svgrepo.com, Generator: SVG Repo Mixer Tools -->
<svg height="800px" width="800px" version="1.1" id="Layer_1" xmlns="http://www.w3.org/2000/svg" xmlns:xlink="http://www.w3.org/1999/xlink" 
	 viewBox="0 0 512 512" xml:space="preserve">
<path style="fill:#797882;" d="M258.491,433.923c-1.824,0-3.68-0.301-5.5-0.937l-75.185-26.266
	c-6.694-2.338-11.177-8.653-11.177-15.744c0-7.091,4.483-13.406,11.177-15.744l30.12-10.522l-30.12-10.523
	c-6.694-2.338-11.177-8.653-11.177-15.744c0-7.091,4.483-13.406,11.177-15.744l30.12-10.522l-30.12-10.523
	c-6.694-2.339-11.177-8.653-11.177-15.744s4.483-13.406,11.177-15.744l30.12-10.522l-30.12-10.523
	c-6.694-2.339-11.177-8.653-11.177-15.744s4.483-13.406,11.177-15.744l75.184-26.266c8.695-3.037,18.205,1.55,21.244,10.243
	c3.036,8.695-1.55,18.206-10.244,21.244l-30.12,10.522l30.12,10.523c6.694,2.338,11.177,8.653,11.177,15.744
	s-4.483,13.406-11.177,15.744l-30.12,10.522l30.12,10.523c6.694,2.338,11.177,8.653,11.177,15.744
	c0,7.091-4.483,13.406-11.177,15.744l-30.12,10.522l30.12,10.523c6.694,2.339,11.177,8.653,11.177,15.744
	c0,7.091-4.483,13.406-11.177,15.744l-30.12,10.522l30.12,10.523c8.694,3.037,13.28,12.549,10.244,21.244
	C271.832,429.617,265.383,433.923,258.491,433.923z"/>
<g>
	<path style="fill:#2D2E30;" d="M275.168,312.178c0-7.09-4.483-13.406-11.177-15.744l-30.12-10.523l30.12-10.522
		c6.694-2.338,11.177-8.653,11.177-15.744c0-7.091-4.483-13.406-11.177-15.744l-30.12-10.523l30.12-10.522
		c8.694-3.037,13.28-12.549,10.244-21.244c-3.038-8.694-12.549-13.28-21.244-10.243l-32.089,11.21v219.193l32.089,11.211
		c1.821,0.636,3.677,0.937,5.5,0.937c6.892,0,13.341-4.306,15.744-11.181c3.036-8.695-1.55-18.205-10.244-21.244l-30.12-10.523
		l30.12-10.522c6.694-2.338,11.177-8.653,11.177-15.744c0-7.091-4.483-13.405-11.177-15.744l-30.12-10.523l30.12-10.522
		C270.684,325.584,275.168,319.269,275.168,312.178z"/>
	<path style="fill:#2D2E30;" d="M495.323,184.219h-61.029c-9.21,0-16.677-7.467-16.677-16.677c0-9.21,7.467-16.677,16.677-16.677
		h61.029c9.21,0,16.677,7.467,16.677,16.677C512,176.752,504.534,184.219,495.323,184.219z"/>
</g>
<path style="fill:#F7DC4D;" d="M483.991,214.209c-9.21,0-16.677-7.467-16.677-16.677v-59.981c0-9.21,7.467-16.677,16.677-16.677
	c9.21,0,16.677,7.467,16.677,16.677v59.981C500.668,206.743,493.201,214.209,483.991,214.209z"/>
<path style="fill:#E61F00;" d="M454.432,167.542c0-29.749-24.117-53.865-53.865-53.865H279.665c-6.067,0-11.373,4.114-12.87,9.994
	c-5.459,21.444-28.123,37.522-55.254,37.522c-27.126,0-49.789-16.074-55.251-37.512c-1.498-5.878-6.793-10.004-12.859-10.004
	h-40.296l-24.4-34.498c-2.489-3.519-6.532-5.611-10.842-5.611H43.844c-4.304,0-8.341,2.086-10.831,5.596
	c-2.49,3.51-3.125,8.009-1.703,12.072l31.965,91.312c8.148,23.276,30.116,38.861,54.777,38.861h61.275l0,0h221.24
	C430.317,221.407,454.432,197.291,454.432,167.542z"/>
<path style="fill:#F7DC4D;" d="M74.767,145.628h-58.09C7.467,145.628,0,138.161,0,128.951s7.467-16.677,16.677-16.677h58.09
	c9.21,0,16.677,7.467,16.677,16.677S83.977,145.628,74.767,145.628z"/>
<path style="fill:#E61F00;" d="M309.238,445.66c0-23.64-19.164-42.803-42.803-42.803h-92.067c-23.64,0-42.803,19.164-42.803,42.803
	c0,5.219,4.231,9.45,9.45,9.45h158.774C305.006,455.11,309.238,450.879,309.238,445.66z"/>
<path style="fill:#797882;" d="M309.237,154.228c-9.21,0-16.677-7.467-16.677-16.677V73.566c0-9.21,7.467-16.677,16.677-16.677
	s16.677,7.467,16.677,16.677v63.985C325.913,146.761,318.448,154.228,309.237,154.228z"/>
<path style="fill:#2D2E30;" d="M368.384,154.228c-9.21,0-16.677-7.467-16.677-16.677V73.566c0-9.21,7.467-16.677,16.677-16.677
	s16.677,7.467,16.677,16.677v63.985C385.061,146.761,377.594,154.228,368.384,154.228z"/>
<path style="fill:#9D2217;" d="M266.435,402.857H220.4v52.253h79.387c5.219,0,9.45-4.231,9.45-9.45
	C309.238,422.021,290.074,402.857,266.435,402.857z"/>
<g>
	<path style="fill:#FF8600;" d="M74.767,112.275H45.722v33.353h29.045c9.21,0,16.677-7.467,16.677-16.677
		S83.977,112.275,74.767,112.275z"/>
	<path style="fill:#FF8600;" d="M483.991,120.874v93.335c9.21,0,16.677-7.467,16.677-16.677v-59.981
		C500.668,128.341,493.201,120.874,483.991,120.874z"/>
</g>
<path style="fill:#F7DC4D;" d="M402.181,90.243H271.086c-9.21,0-16.677-7.467-16.677-16.677s7.467-16.677,16.677-16.677h131.095
	c9.21,0,16.677,7.467,16.677,16.677S411.391,90.243,402.181,90.243z"/>
<path style="fill:#FF8600;" d="M402.181,56.889h-65.547v33.353h65.548c9.21,0,16.677-7.467,16.677-16.677
	S411.391,56.889,402.181,56.889z"/>
<path style="fill:#9D2217;" d="M400.568,113.677H279.665c-6.067,0-11.373,4.114-12.87,9.994
	c-4.823,18.947-23.083,33.697-45.983,36.876v60.86h179.756c29.749,0,53.865-24.117,53.865-53.865
	C454.432,137.793,430.317,113.677,400.568,113.677z"/>
</svg>